<?xml version="1.0" encoding="utf-8"?>
<!-- Generator: Adobe Illustrator 21.0.0, SVG Export Plug-In . SVG Version: 6.00 Build 0)  -->
<svg version="1.1" id="レイヤー_1" xmlns="http://www.w3.org/2000/svg" xmlns:xlink="http://www.w3.org/1999/xlink" x="0px"
	 y="0px" width="330px" height="276px" viewBox="0 0 330 276" style="enable-background:new 0 0 330 276;" xml:space="preserve">
<style type="text/css">
	.st0{fill:#231815;}
	.st1{fill:#FFFFFF;}
	.st2{fill:#B4904F;}
</style>
<g>
	<g>
		<path class="st0" d="M90.2,70.7C80.6,76.1,66.7,81.9,60,83.9c-0.3,0.1-0.3,0.5,0,0.6c10.9,4.9,33.3-1.3,40.4-6.7
			C98.5,75.6,93.6,71.5,90.2,70.7z"/>
		<path class="st0" d="M138.9,37.3c1.3-2,3.6-5.4,7.3-9c-1.4,3.3-2.4,7.9-1.7,14c0.2,2.2,1.8,1,1.7,0c-1-10.1,3.7-16,5.7-18
			c4.2-4.2,7.5-1.6,6.5,2c-1,3.5-1.9,6.6-3,9.7c-1.1,0.1-2.3,0.3-3.3,0.9c-1.1,0.6-4.2,3-2.7,8.2c-3.3-0.2-6.5-0.3-9.4-0.1
			c-10.9,0.7-17.3,2.1-22.1,4.4c-0.2,0.1-0.2,0.4,0,0.5c6.7,1.8,11.3,5.7,14.4,11.4c0.1,0.2,0.3,0.1,0.4,0c2.1-4.9,8-6.5,13.5-6.6
			c10.2-0.3,18.7,0.5,29.5,2.3c9.3,1.6,19.8,3.4,32.1,3.8c19.2,0.6,26.1-7.1,28.5-11.7c3.5-6.9,2-15.8-4-23.7
			C223,13.2,201.5,1.4,171.1,7.8c-24.6,5.2-35.7,20.1-38,26.8C130.8,41.3,135.7,42,138.9,37.3z M151.7,45.2c-1.1-3-0.6-5.4,1.5-6.6
			c2.1-1.2,5.1-0.7,6.3,1.1c1.2,1.9,1.9,4.4,2.3,6.8C158.4,46,155,45.5,151.7,45.2z M170,47.8c-2-0.3-4-0.7-6.1-1
			c-0.4-2.7-1.2-5.9-2.8-8.2c0,0-0.1-0.1-0.1-0.1c1.5-2.8,4.2-3.2,5.3-3.2c0,0,0,0,0,0c2.4,0,4.6,1.2,5.4,3
			C172.8,40.6,171.4,44.8,170,47.8z M172.2,48.2c1.4-3.2,2.9-7.8,1.5-10.8c-0.1-0.2-0.2-0.4-0.3-0.6c1.3-1.2,3-1.7,4.8-1.2
			c2,0.6,3.4,2.1,3.7,3.9c0.3,2-1.3,5.6-4.3,9.7C175.9,48.9,174.1,48.6,172.2,48.2z M179.9,49.6c2.1-3.1,4.4-7.2,4-10.2
			c1.2-1,2.8-1.3,4.2-0.8c1.5,0.6,2.6,1.9,2.7,3.4c0.2,1.7-2.2,4.8-6.4,8.3C183,50.1,181.5,49.9,179.9,49.6z M187.2,50.7
			c3.1-2.8,6-6.2,5.7-8.9c0-0.1-0.1-0.2-0.1-0.4c2.3-0.7,4.2-0.2,5.2,1.3c1,1.4,1,3.3-0.1,4.7c-1,1.4-3.2,2.7-6.4,3.9
			C190.2,51.1,188.7,51,187.2,50.7z M206.4,50.2c-0.9,0.9-2.4,1.5-4.2,2c-2-0.1-4.1-0.2-6.4-0.4c1.6-0.9,3-1.9,3.9-3.1
			c0.7-1,1.1-2.2,1.1-3.3c2.8-0.3,5.2,1,6,2.4C207.2,48.5,207.2,49.5,206.4,50.2z M219.3,45.7c-3.2-0.2-7.2-0.4-10.9,0.1
			c-1.5-1.9-4.6-3-7.7-2.6c-0.2-0.6-0.5-1.2-0.8-1.8c-0.3-0.4-0.7-0.8-1.1-1.1c4.1-1.3,9.1-2.2,13.8-2.5c4.7-0.3,9.3,1.6,12.2,4.8
			C227.9,46.2,225,46.1,219.3,45.7z M222.7,33.9c0,0.1,0.2,0.4-0.2,0.6c-0.9,0.4-3,0.5-7.3,0.6c-5.5,0.2-13.7,1.3-19.8,3.9
			c-1-0.1-2.1,0-3.2,0.4l0.1,0.2c-0.7-1.4-1.9-2.5-3.4-3c-0.2-0.1-0.4-0.1-0.5-0.1c2.6-1.7,6.8-4.2,11.6-5.9c1-0.4,1.9-0.7,2.8-1
			c3.6-1.2,6.4-1.5,8.9-1.5C215.7,28.1,220.8,29.4,222.7,33.9z M208.7,23.3c0.1,0.6-0.2,1.8-9.6,5.2c-8.2,2.9-14.7,7.8-15,8.1
			c-0.1,0.1-0.2,0.2-0.3,0.4c-0.2,0.1-0.4,0.2-0.5,0.3c-0.9-1.7-2.5-3.1-4.6-3.7c-0.2,0-0.3-0.1-0.5-0.1c2.5-1.8,5.2-3.9,7.5-5.6
			c1.7-1.3,3.1-2.4,3.9-3c0,0,0,0,0,0C198.8,17.9,208.6,22,208.7,23.3z M191.6,18.1c0.5,1.3-0.8,3.1-3.1,4.7
			c-0.8,0.6-2.3,1.7-4.2,3.2c-3.4,2.6-8.4,6.4-11.2,8.3c-0.4,0.2-0.8,0.5-1.1,0.9c-1.1-0.9-2.5-1.6-4-1.9c0,0,0,0,0,0
			c0.9-1.2,1.9-2.5,2.7-3.7c1-1.5,2-2.9,2.7-3.7c2.5-2.8,4-5,4.4-6.8C183.9,14.5,190.9,16.1,191.6,18.1z M173.9,16.6
			c0.9,0.1,1.5,0.7,1.6,1.1c0.3,1,0.1,2.3-3.6,6.4c-0.8,0.9-2.1,2.5-3.2,4.1c-1.2,1.6-2.5,3.5-3.7,5c0,0,0,0,0,0
			c-2.3,0.4-4.3,1.7-5.5,3.7c-0.5-0.3-1.1-0.6-1.7-0.7c1-2.7,2.9-8.7,3.1-10.1c0.2-1.6,0.2-3-0.2-4
			C161.7,19.9,167.8,15.6,173.9,16.6z"/>
		<path class="st0" d="M236.1,86.7c-2.4-4.7-9.3-12.3-28.5-11.7c-12.2,0.4-22.8,2.2-32.1,3.8c-9.7,1.7-18.2,3.1-27.1,3
			c-7.1-0.1-14-4.7-18.4-14.8c-6-13.7-16.8-14.2-22.3-13.8c-3.3,0.2-6.6,0.8-10.3,3.7c-0.2,0.1-0.4,0.1-0.5,0
			c-10.2-6.6-30.5-4.5-37.7-2.1c-0.5,0.2-0.5,0.8-0.1,0.9c7.8,2.4,28.5,7.7,39.5,15.7c10.1,7.4,12.4,17.6,41.1,19.4
			c2.9,0.2,6.2,0.1,9.6-0.1c-1.3,5.1,1.6,7.4,2.7,8c1,0.6,2.1,0.9,3.3,0.9c1.1,3.1,2,6.2,3,9.7c1.1,3.6-2.3,6.2-6.5,2
			c-2-2.1-6.7-8-5.7-18.1c0.1-1.1-1.5-2.3-1.7,0c-0.7,6.4,0.4,11.1,1.9,14.4c-4-3.7-6.3-7.2-7.7-9.3c-3.2-4.7-8.1-4.1-5.8,2.6
			c2.3,6.7,13.3,21.5,38,26.8c30.4,6.5,51.9-5.3,61.2-17.4C238.2,102.5,239.7,93.6,236.1,86.7z M171.8,97.3c-0.8,1.8-3,3-5.4,3
			c0,0,0,0,0,0c-1.1,0-3.8-0.3-5.3-3.2c0,0,0.1-0.1,0.1-0.1c1.5-2.3,2.3-5.4,2.7-8.1c2.1-0.3,4.2-0.7,6.1-1
			C171.4,90.8,172.8,95,171.8,97.3z M172,100.4c0.4,0.3,0.7,0.6,1.1,0.9c2.8,1.9,7.8,5.7,11.2,8.3c1.9,1.4,3.4,2.6,4.2,3.2
			c2.2,1.6,3.5,3.5,3.1,4.7c-0.7,2-7.7,3.6-13.8-1c-0.4-1.8-1.8-4-4.4-6.8c-0.7-0.8-1.7-2.2-2.7-3.7c-0.8-1.2-1.8-2.5-2.7-3.7h0
			C169.5,102,170.9,101.3,172,100.4z M195.4,96.4c6.1,2.7,14.3,3.8,19.8,4c4.2,0.2,6.4,0.2,7.3,0.6c0.4,0.2,0.3,0.5,0.2,0.6
			c-1.9,4.6-7,5.8-11.1,5.9c-2.4,0-5.3-0.3-8.9-1.5c-0.9-0.3-1.8-0.7-2.8-1c-4.7-1.7-9-4.2-11.6-5.9c0.2,0,0.4-0.1,0.5-0.1
			c1.5-0.6,2.7-1.7,3.4-3l-0.1,0.2C193.3,96.4,194.4,96.5,195.4,96.4z M212.5,97.6c-4.7-0.3-9.7-1.1-13.8-2.5
			c0.4-0.3,0.8-0.7,1.1-1.1c0.4-0.5,0.7-1.1,0.8-1.8c3.1,0.4,6.2-0.7,7.7-2.6c3.8,0.5,7.7,0.3,10.9,0.1c5.7-0.4,8.6-0.5,5.4,3
			C221.8,96.1,217.2,97.9,212.5,97.6z M206.4,85.3c0.7,0.7,0.8,1.7,0.4,2.4c-0.7,1.4-3.2,2.8-6,2.4c-0.1-1.2-0.4-2.3-1.1-3.3
			c-0.8-1.2-2.2-2.1-3.7-3c2.3-0.2,4.5-0.3,6.6-0.4C204.3,83.9,205.6,84.5,206.4,85.3z M198,88.1c1,1.4,1,3.4,0.1,4.7
			c-1,1.5-2.9,1.9-5.2,1.3c0-0.1,0.1-0.2,0.1-0.4c0.3-2.7-2.6-6-5.6-8.8c1.5-0.2,3-0.4,4.5-0.6C194.9,85.4,197.1,86.8,198,88.1z
			 M190.9,93.5c-0.2,1.6-1.2,2.9-2.7,3.4c-1.4,0.5-3,0.2-4.2-0.8c0.3-3-1.9-7.1-4-10.1c1.6-0.3,3.1-0.5,4.7-0.7
			C188.7,88.7,191,91.8,190.9,93.5z M183.3,98.3c0.2,0.1,0.3,0.2,0.5,0.3c0.1,0.1,0.2,0.3,0.3,0.4c0.3,0.2,6.8,5.1,15,8.1
			c9.4,3.4,9.6,4.6,9.5,5.2c-0.1,1.2-9.9,5.4-19-1.6c0,0,0,0,0,0c-0.8-0.6-2.2-1.7-3.9-3c-2.2-1.7-5-3.8-7.5-5.6
			c0.2,0,0.3-0.1,0.5-0.1C180.8,101.4,182.5,100,183.3,98.3z M176.9,86.6c0.3,0,0.5-0.1,0.8-0.1c2.9,4.1,4.4,7.6,4.2,9.6
			c-0.3,1.8-1.7,3.4-3.7,3.9c-1.8,0.5-3.5,0-4.8-1.2c0.1-0.2,0.2-0.4,0.3-0.6c1.3-3-0.1-7.5-1.5-10.7
			C173.9,87.1,175.4,86.8,176.9,86.6z M153.1,96.8c-2-1.2-2.5-3.5-1.5-6.4c3.3-0.3,6.7-0.7,10.1-1.3c-0.4,2.3-1.1,4.8-2.3,6.6
			C158.2,97.6,155.3,98.1,153.1,96.8z M157.8,99.3c0.6-0.2,1.2-0.4,1.7-0.7c1.2,2,3.2,3.3,5.5,3.7h0c1.3,1.6,2.6,3.4,3.7,5.1
			c1.1,1.6,2.4,3.2,3.2,4.1c3.7,4.1,3.9,5.4,3.6,6.4c-0.1,0.4-0.7,1-1.6,1.1c-6.1,1-12.2-3.3-13.3-5.5c0.4-1.1,0.4-2.4,0.2-4
			C160.7,107.9,158.8,102,157.8,99.3z"/>
		<g>
			<g>
				<circle class="st1" cx="112.1" cy="64.1" r="4.7"/>
				<circle class="st2" cx="112.1" cy="64.1" r="2.6"/>
			</g>
		</g>
	</g>
	<g>
		<g>
			<g>
				<path class="st0" d="M147.7,171.4c-0.1,0.4-0.2,0.9-0.7,1.1c-0.2,0.1-0.4,0.1-0.8,0.1c-0.1,0-0.2,0-0.4,0c-0.4,0-0.8,0-1,0
					c0,0,0,0-0.1,0c-1.2,0-2.4,0.1-3.3,0.2c0.1,0.7,0.4,1.6,0.6,2.4c0.2,0.8,0.4,1.5,0.6,2c0.1,0.2,0.1,0.5,0.1,0.8
					c0,0.4-0.2,0.8-0.7,0.9c-0.1,0-0.2,0-0.2,0c-0.6,0-0.9-0.5-1-1c0-0.2-0.1-0.3-0.1-0.5c-0.1-0.5-0.3-1.3-0.4-2.1
					c-0.1-0.9-0.3-1.8-0.4-2.5c-0.5,0.1-1.3,0.2-2.1,0.4c-0.8,0.2-1.5,0.3-2.2,0.5c-0.6,0.2-1.3,0.4-1.6,0.5c-0.1,0-0.2,0-0.3,0
					c-0.2,0-0.4,0-0.5-0.2c-0.2-0.1-0.2-0.4-0.2-0.6c0-0.6,0.4-1.4,0.9-1.6c0,0,0.1,0,0.2,0c0.1,0,0.2,0,0.3,0.1
					c0.1,0,0.3,0.1,0.4,0.1c0,0,0.2,0,0.3,0c0.2,0,0.5,0,0.7,0c0.7-0.1,1.3-0.2,1.9-0.3l2.1-0.3l-0.5-2.3c-1.1,0.2-1.7,0.3-2.6,0.4
					c-0.2,0-0.5,0.1-0.7,0.2c-0.2,0.1-0.5,0.2-0.6,0.2c-0.2,0-0.3,0.1-0.5,0.1c-0.1,0-0.2,0-0.3-0.1c-0.3-0.2-0.4-0.4-0.4-0.7
					c0-0.1,0-0.3,0-0.4c0.1-0.5,0.5-1,0.8-1.1c0.1,0,0.2,0,0.2,0c0.1,0,0.3,0,0.4,0c0.1,0,0.3,0.1,0.4,0.1c0,0,0.1,0,0.2,0
					c0.7-0.1,2.1-0.2,2.8-0.3c-0.1-0.4-0.3-1.6-0.5-1.9c-0.1-0.3-0.3-0.5-0.3-0.8v0c0-0.4,0.4-0.6,0.7-0.7c0.2,0,0.4-0.1,0.6-0.1
					c0.2,0,0.3,0,0.4,0c0.4,0.1,0.6,0.5,0.6,0.7v0c0,0.1,0,0.3-0.1,0.4c0,0.1,0,0.2,0,0.3c0,0,0,0.1,0,0.2c0.1,0.5,0.1,1.1,0.2,1.6
					c0.8-0.1,1.6-0.2,2.7-0.4c0.4,0,1.2-0.2,1.4-0.3c0.2-0.1,0.5-0.2,0.7-0.2c0.1,0,0.2,0,0.2,0.1c0.2,0.1,0.3,0.2,0.3,0.4
					c0,0.2,0,0.4-0.1,0.6c-0.1,0.4-0.3,0.7-0.5,0.8c-0.2,0-0.5,0.1-0.8,0.1c-0.3,0-0.7,0-0.8,0c-0.9,0.1-1.8,0.1-2.6,0.3
					c0.2,0.7,0.4,1.7,0.5,2.4c1-0.1,2.6-0.3,3.6-0.5c0.5-0.1,1.1-0.2,1.4-0.3c0.3-0.1,0.5-0.2,0.8-0.3c0.2-0.1,0.3-0.1,0.5-0.1
					c0.1,0,0.1,0,0.2,0c0.1,0,0.2,0.2,0.2,0.4C147.9,170.9,147.8,171.2,147.7,171.4z"/>
				<path class="st0" d="M178.5,172.9c-0.3,0.3-0.5,0.5-0.9,0.5c-0.2,0-0.4,0-0.6-0.2c-0.3-0.1-0.6-0.4-1-0.6
					c-0.5-0.3-0.8-0.5-1.3-0.8c-0.4-0.2-1-0.5-1.5-0.8c-0.3-0.2-0.6-0.3-1.1-0.5c0,0.3,0,0.7,0,1.1c0,0.8,0,1.5,0,2.2
					c0,1,0,1.7,0,2.6c0,0.2,0,0.4,0,0.6c0,0.1,0,0.2,0,0.3c0,0.2,0,0.5-0.1,0.6c-0.1,0.3-0.5,0.5-0.9,0.5c0,0,0,0,0,0
					c-0.3,0-0.7-0.1-0.9-0.4c-0.1-0.1-0.1-0.3-0.1-0.5c0-0.3,0-0.5,0-0.7c0-0.8,0.1-2,0.1-3.3s0.1-2.5,0.1-3.3v0
					c0-1.5,0-3.2-0.1-3.9c0-0.2-0.1-0.4-0.2-0.6c-0.1-0.2-0.1-0.3-0.1-0.5c0,0,0-0.1,0-0.1c0.1-0.5,0.7-0.6,1.2-0.6c0,0,0.1,0,0.1,0
					c0.5,0,1,0.3,1,0.6c0,0.3-0.2,0.8-0.2,1.1c0,0.5,0,0.8,0,1.4c0,0.3,0,0.7,0,1c0,0.1,0,0.2,0,0.3c0.8,0.3,1.5,0.6,2.3,0.9
					c0.8,0.4,1.7,0.7,2.5,1.1c0.5,0.2,0.8,0.3,1.1,0.3c0.2,0.1,0.4,0.1,0.7,0.1c0.2,0,0.4,0,0.4,0.1c0,0,0,0.1,0,0.1
					C179.1,171.9,178.8,172.6,178.5,172.9z M178.3,168.7c-0.1,0.2-0.3,0.4-0.5,0.4h0c-0.1,0-0.3-0.2-0.4-0.4
					c-0.2-0.3-0.5-0.7-0.7-0.9c-0.2-0.2-0.5-0.5-0.7-0.8c-0.1-0.1-0.2-0.3-0.2-0.3c0-0.1,0-0.3,0.2-0.4c0.1-0.1,0.2-0.1,0.3-0.1
					s0.3,0,0.4,0.1c0.4,0.2,0.6,0.4,0.9,0.6c0.4,0.3,0.8,0.8,0.8,1.1c0,0,0,0.1,0,0.1C178.5,168.4,178.4,168.5,178.3,168.7z
					 M180.2,167.3c-0.1,0.2-0.3,0.4-0.5,0.4h0c-0.1,0-0.3-0.2-0.4-0.4c-0.2-0.3-0.5-0.6-0.7-0.9c-0.2-0.2-0.5-0.5-0.7-0.7
					c-0.1-0.1-0.2-0.3-0.2-0.4c0-0.1,0-0.2,0.2-0.3c0.1-0.1,0.2-0.1,0.3-0.1s0.3,0,0.4,0.1c0.4,0.2,0.6,0.4,0.9,0.7
					c0.4,0.3,0.8,0.7,0.8,1.1c0,0,0,0.1,0,0.1C180.3,167.1,180.3,167.2,180.2,167.3z"/>
				<path class="st0" d="M203.2,166.2c0,0.2,0,0.5-0.1,0.7l-0.1,1.9l0.1,2.8c0,0,0,0.1,0,0.1c0,0.5-0.2,1.1-0.9,1.1
					c-0.8,0-0.9-0.6-0.9-1.1c0,0,0-0.1,0-0.1l0.1-2.9c0,0,0,0,0,0c0-0.3-0.1-1.5-0.2-2c0-0.1-0.3-0.5-0.3-0.7c0,0,0,0,0-0.1
					c0.1-0.4,0.5-0.5,0.9-0.6c0.1,0,0.3,0,0.4,0c0.3,0,0.6,0.1,0.8,0.4c0.1,0.1,0.1,0.2,0.1,0.3C203.2,166,203.2,166.1,203.2,166.2z
					 M209.5,166.1c-0.1,0.5-0.1,1.3-0.1,2c0,0.1,0,0.3,0,0.4c0,0.8,0,1.7,0,2.5c0,0.1,0,0.2,0,0.2c0,1.6-0.3,3.1-1.3,4.4
					c-0.8,0.9-1.4,1.5-2.6,2.2c-0.3,0.2-0.7,0.4-1.1,0.4c0,0-0.1,0-0.1,0c-0.2,0-0.8-0.3-1.3-0.6c-0.3-0.2-0.6-0.5-0.6-0.7v0
					c0-0.3,0.2-0.3,0.5-0.4c0.3-0.1,0.5-0.2,0.8-0.3c0.7-0.2,1.6-0.6,2.2-1.1c0.6-0.5,1.1-1,1.4-1.8c0.4-0.8,0.4-1.9,0.4-2.9
					c0-0.2,0-0.3,0-0.5c0-1.2,0-2.4-0.1-3.5c0-0.4-0.3-0.7-0.3-1c0,0,0,0,0-0.1c0-0.4,0.5-0.6,1-0.7c0.1,0,0.3,0,0.4,0
					c0.3,0,0.6,0.1,0.8,0.4c0.1,0.1,0.1,0.2,0.1,0.4C209.6,165.7,209.6,165.9,209.5,166.1z"/>
			</g>
		</g>
		<g>
			<g>
				<path class="st0" d="M6.5,202.9c0-7.7-0.1-8.9-4.4-9.2l-1.8-0.1c-0.4-0.3-0.3-1.6,0.1-1.8c3.6,0.1,5.9,0.2,9.2,0.2
					c2.9,0,5.4-0.1,8.5-0.2c0.4,0.2,0.6,1.5,0.1,1.8l-1.4,0.1c-4.3,0.4-4.4,1.5-4.4,9.2v8.4c0,1.4,0.1,2.8,1,2.8
					c0.7,0,1.5-0.4,2.1-0.8c1-0.9,2.9-2.8,3.7-3.5l7.9-7.9c1.4-1.3,5-5.1,5.7-6.1c0.4-0.5,0.5-0.9,0.5-1.2c0-0.3-0.3-0.5-1.2-0.7
					l-2-0.4c-0.5-0.5-0.4-1.5,0.1-1.8c2.6,0.1,5.5,0.2,8.1,0.2c2.6,0,5.1-0.1,7.3-0.2c0.5,0.4,0.6,1.4,0.1,1.8
					c-1.9,0.1-4.8,0.9-6.8,2.1c-2.1,1.2-6.2,4.6-10.3,8.5l-6.6,6.2c-1,1-1.7,1.7-1.7,2.3c0,0.5,0.4,1.1,1.4,2.3
					c7,8,12.6,14.6,18.3,20.6c1.8,1.8,3.4,2.7,5.9,3l2,0.2c0.5,0.4,0.4,1.6-0.1,1.8c-1.9-0.1-4.8-0.2-8.2-0.2c-3,0-5.6,0.1-9,0.2
					c-0.5-0.1-0.7-1.4-0.3-1.8l1.7-0.3c1-0.1,1.8-0.4,1.8-0.7c0-0.4-0.5-1-1-1.7c-1.4-1.8-3.3-3.7-6.1-6.9l-5.9-6.6
					c-4.2-4.7-5.4-6.2-7.1-6.2c-1.1,0-1.2,1-1.2,3.5v9.5c0,7.7,0.1,8.7,4.3,9.2l2,0.2c0.4,0.3,0.3,1.6-0.1,1.8
					c-3.6-0.1-6.1-0.2-9-0.2c-3,0-5.5,0.1-8.5,0.2c-0.4-0.2-0.6-1.3-0.1-1.8l1.5-0.2c3.9-0.6,4-1.5,4-9.2V202.9z"/>
				<path class="st0" d="M73.7,203c0-7.8-0.1-9-4.5-9.4l-1.8-0.1c-0.4-0.3-0.3-1.6,0.1-1.8c3.7,0.1,6.2,0.2,9.2,0.2
					c2.9,0,5.4-0.1,9.1-0.2c0.4,0.2,0.6,1.5,0.1,1.8l-1.8,0.1c-4.3,0.4-4.5,1.6-4.5,9.4v26.1c0,7.8,0.1,8.8,4.5,9.3l1.8,0.2
					c0.4,0.3,0.3,1.6-0.1,1.8c-3.7-0.1-6.2-0.2-9.1-0.2c-3.1,0-5.6,0.1-9.2,0.2c-0.4-0.2-0.6-1.4-0.1-1.8l1.8-0.2
					c4.3-0.5,4.5-1.5,4.5-9.3V203z"/>
				<path class="st0" d="M117.5,201.4c0-5.1-0.4-6.7-3.4-7.1l-1.6-0.2c-0.6-0.4-0.7-1.5,0.1-1.8c6.2-0.4,12.2-0.6,18.4-0.6
					c6.2,0,11.4,0.4,16.1,2.2c9.9,3.6,14.9,12,14.9,21.6c0,9.3-4.5,17.3-12.8,21.9c-4.8,2.6-10.8,3.5-16.4,3.5
					c-4.7,0-9.4-0.6-12-0.6c-3.1,0-5.7,0.1-9.2,0.2c-0.4-0.2-0.6-1.4-0.1-1.8l1.7-0.2c4.3-0.6,4.4-1.5,4.4-9.2V201.4z M123.6,227.6
					c0,3.9,0.2,6.2,1.5,8c1.6,2.3,4.4,3,9,3c14.2,0,20.6-9.3,20.6-23c0-8.1-3.9-21.7-23.1-21.7c-4.3,0-6.7,0.6-7.3,1
					c-0.6,0.4-0.7,2.3-0.7,5.6V227.6z"/>
				<path class="st0" d="M180.7,216.6c0-14.7,11-25.9,26.1-25.9c17,0,25.5,12.3,25.5,25.2c0,14.8-11.3,25.6-25.5,25.6
					C190.6,241.5,180.7,229.8,180.7,216.6z M225,218.2c0-12.1-5.4-25.2-19.4-25.2c-7.6,0-17.5,5.2-17.5,21.3
					c0,10.9,5.3,24.9,19.7,24.9C216.6,239.2,225,232.6,225,218.2z"/>
				<path class="st0" d="M256.9,203c0-7-0.2-8.2-3.2-8.6l-2.3-0.3c-0.5-0.4-0.5-1.5,0.1-1.8c4.1-0.4,9.2-0.6,16.4-0.6
					c4.5,0,8.9,0.4,12.3,2.2c3.5,1.8,6.1,5.1,6.1,10.3c0,7-5.5,10.8-9.2,12.3c-0.4,0.4,0,1.2,0.4,1.8c5.9,9.5,9.8,15.3,14.8,19.5
					c1.2,1.1,3.1,1.9,5.1,2.1c0.4,0.1,0.4,0.7,0.1,1c-0.7,0.2-1.8,0.4-3.2,0.4c-6.2,0-10-1.8-15.2-9.2c-1.9-2.7-4.9-7.8-7.2-11.1
					c-1.1-1.6-2.3-2.3-5.2-2.3c-3.3,0-3.4,0.1-3.4,1.6v9.2c0,7.7,0.1,8.6,4.4,9.2l1.5,0.2c0.4,0.4,0.3,1.6-0.1,1.8
					c-3.3-0.1-5.8-0.2-8.7-0.2c-3.1,0-5.7,0.1-9.2,0.2c-0.4-0.2-0.6-1.3-0.1-1.8l1.8-0.2c4.3-0.5,4.4-1.5,4.4-9.2V203z M262.9,213.5
					c0,1.3,0,2.1,0.2,2.4c0.2,0.2,1.3,0.4,5.1,0.4c2.6,0,5.4-0.3,7.6-1.9c2-1.5,3.7-4.1,3.7-9.1c0-5.8-3.6-11.3-11.7-11.3
					c-4.5,0-4.8,0.3-4.8,2.3V213.5z"/>
				<path class="st0" d="M317.4,203c0-7.8-0.1-9-4.5-9.4l-1.8-0.1c-0.4-0.3-0.3-1.6,0.1-1.8c3.7,0.1,6.2,0.2,9.2,0.2
					c2.9,0,5.4-0.1,9.1-0.2c0.4,0.2,0.6,1.5,0.1,1.8l-1.8,0.1c-4.3,0.4-4.5,1.6-4.5,9.4v26.1c0,7.8,0.1,8.8,4.5,9.3l1.8,0.2
					c0.4,0.3,0.3,1.6-0.1,1.8c-3.7-0.1-6.2-0.2-9.1-0.2c-3.1,0-5.6,0.1-9.2,0.2c-0.4-0.2-0.6-1.4-0.1-1.8l1.8-0.2
					c4.3-0.5,4.5-1.5,4.5-9.3V203z"/>
			</g>
		</g>
		<g>
			<g>
				<path class="st0" d="M37.8,265.4v3.8c0,0.8,0.1,1.4,0.3,1.5c0.2,0.3,0.6,0.4,1.1,0.4h0.5v0.4h-5.6v-0.4h0.5
					c0.5,0,0.9-0.2,1.2-0.5c0.1-0.2,0.2-0.7,0.2-1.4v-8.5c0-0.8-0.1-1.3-0.3-1.5c-0.3-0.3-0.6-0.4-1.1-0.4h-0.5v-0.4h4.8
					c1.2,0,2.1,0.1,2.8,0.4c0.3,0.1,0.7,0.3,0.9,0.5c0.3,0.2,0.5,0.5,0.8,0.7c0.2,0.3,0.4,0.6,0.5,0.9c0.1,0.3,0.2,0.7,0.2,1.1
					c0,0.5-0.1,1-0.3,1.5c-0.2,0.4-0.4,0.8-0.8,1.1c-0.3,0.3-0.8,0.6-1.3,0.7c-0.5,0.2-1.1,0.3-1.7,0.3
					C39.4,265.7,38.7,265.6,37.8,265.4z M37.8,264.9c0.3,0.1,0.7,0.1,0.9,0.2c0.3,0,0.5,0.1,0.7,0.1c0.3,0,0.7-0.1,1-0.2
					c0.3-0.1,0.6-0.3,0.8-0.6c0.2-0.2,0.4-0.5,0.5-0.9c0.1-0.3,0.2-0.7,0.2-1.1c0-0.5-0.1-0.9-0.2-1.3c-0.1-0.4-0.3-0.7-0.6-1
					c-0.3-0.3-0.5-0.5-0.9-0.6c-0.3-0.1-0.7-0.2-1.1-0.2c-0.3,0-0.8,0.1-1.3,0.2V264.9z"/>
				<path class="st0" d="M58.9,267.9l0.3,0.1l-1.1,3.6H47.9v-0.4h0.5c0.5,0,0.9-0.2,1.2-0.5c0.1-0.2,0.2-0.7,0.2-1.4v-8.5
					c0-0.8-0.1-1.3-0.3-1.5c-0.3-0.3-0.6-0.4-1.1-0.4h-0.5v-0.4h6v0.4c-0.4,0-0.7,0-0.9,0.1c-0.2,0-0.4,0.1-0.6,0.1
					c-0.2,0.1-0.3,0.1-0.4,0.2c-0.1,0.1-0.2,0.2-0.2,0.3c-0.1,0.2-0.1,0.7-0.1,1.5v8.3c0,0.5,0,0.8,0.1,1c0.1,0.2,0.2,0.3,0.4,0.4
					c0.2,0.1,0.7,0.1,1.5,0.1h1c1,0,1.7-0.1,2.1-0.2c0.2-0.1,0.4-0.2,0.6-0.3c0.2-0.1,0.4-0.3,0.5-0.5c0.2-0.2,0.3-0.4,0.5-0.7
					C58.5,268.7,58.7,268.3,58.9,267.9z"/>
				<path class="st0" d="M71.3,267.2h-5.1l-0.9,2.1c-0.2,0.5-0.3,0.9-0.3,1.1c0,0.1,0,0.2,0.1,0.3s0.1,0.2,0.2,0.2
					c0.1,0.1,0.3,0.1,0.5,0.2c0.2,0.1,0.5,0.1,0.8,0.1v0.4h-4.1v-0.4c0.3,0,0.6-0.1,0.8-0.2c0.2-0.1,0.4-0.2,0.5-0.4
					c0.1-0.2,0.3-0.4,0.4-0.7c0.1-0.3,0.3-0.6,0.4-1l4.6-10.8h0.3l4.6,10.9c0.2,0.5,0.4,0.8,0.5,1.1c0.2,0.3,0.3,0.5,0.5,0.6
					c0.2,0.2,0.4,0.3,0.5,0.3c0.2,0.1,0.4,0.1,0.7,0.1v0.4h-5.2v-0.4c0.5,0,0.9-0.1,1.1-0.3c0.2-0.2,0.3-0.3,0.3-0.5
					c0-0.3-0.1-0.7-0.4-1.4L71.3,267.2z M71.1,266.4l-2.2-5.3l-2.3,5.3H71.1z"/>
				<path class="st0" d="M79,258.4h3.6l8,9.9v-7.6c0-0.4,0-0.8-0.1-1.1c-0.1-0.3-0.2-0.5-0.3-0.6c-0.1-0.1-0.3-0.2-0.4-0.2
					c-0.2,0-0.4-0.1-0.6-0.1h-0.5v-0.4h4.6v0.4h-0.5c-0.2,0-0.4,0-0.6,0.1c-0.2,0-0.3,0.1-0.4,0.3s-0.2,0.3-0.3,0.6
					c-0.1,0.3-0.1,0.6-0.1,1v11.1h-0.3l-8.7-10.6v8.1c0,0.5,0,0.8,0.1,1.1c0.1,0.3,0.2,0.4,0.3,0.6c0.1,0.1,0.3,0.2,0.4,0.2
					c0.2,0,0.4,0,0.6,0h0.5v0.4h-4.6v-0.4h0.5c0.2,0,0.4,0,0.6-0.1c0.2,0,0.3-0.1,0.4-0.3c0.1-0.1,0.2-0.3,0.3-0.6
					c0.1-0.2,0.1-0.6,0.1-1v-9.1c-0.2-0.2-0.4-0.4-0.5-0.5c-0.1-0.1-0.3-0.2-0.4-0.3c-0.1-0.1-0.2-0.2-0.4-0.2
					c-0.1-0.1-0.3-0.1-0.5-0.2c-0.2-0.1-0.5-0.1-0.9-0.1V258.4z"/>
				<path class="st0" d="M107.7,258.4v3.1h-0.2c-0.1-0.8-0.3-1.4-0.7-1.8c-0.4-0.3-0.9-0.5-1.7-0.5h-1.9v10.1c0,0.4,0,0.8,0.1,1
					c0.1,0.3,0.2,0.4,0.3,0.6c0.1,0.1,0.3,0.2,0.4,0.2c0.2,0,0.4,0.1,0.6,0.1h0.4v0.4h-5.6v-0.4h0.5c0.2,0,0.4,0,0.6-0.1
					c0.2,0,0.3-0.1,0.4-0.3c0.1-0.1,0.2-0.3,0.3-0.6c0.1-0.2,0.1-0.6,0.1-1v-10.1h-1.6c-0.4,0-0.7,0-1,0.1c-0.3,0.1-0.6,0.2-0.8,0.3
					c-0.2,0.2-0.4,0.4-0.5,0.7s-0.2,0.7-0.2,1.1h-0.4v-3.1H107.7z"/>
				<path class="st0" d="M120.1,258.1v4.5h-0.4c-0.2-1.2-0.6-2.2-1.2-2.8c-0.6-0.6-1.4-1-2.4-1c-0.3,0-0.6,0.1-0.9,0.2
					c-0.3,0.1-0.5,0.3-0.7,0.5c-0.2,0.2-0.4,0.4-0.5,0.6c-0.1,0.2-0.2,0.5-0.2,0.8c0,0.2,0,0.5,0.1,0.7c0.1,0.2,0.4,0.6,0.9,1
					c0.8,0.5,1.6,1,2.2,1.3c0.6,0.3,1.5,0.8,2.5,1.5c0.5,0.3,0.8,0.8,1,1.2c0.2,0.5,0.4,1,0.4,1.5c0,0.5-0.1,1-0.3,1.4
					c-0.2,0.4-0.5,0.8-0.8,1.2c-0.4,0.3-0.8,0.6-1.3,0.8c-0.5,0.2-1.1,0.3-1.7,0.3c-0.4,0-0.7,0-1.1-0.1c-0.1,0-0.2-0.1-0.5-0.1
					c-0.2-0.1-0.5-0.1-0.8-0.2c-0.3-0.1-0.5-0.2-0.8-0.2c-0.2-0.1-0.4-0.1-0.4-0.1c-0.2,0-0.3,0-0.4,0.1c-0.1,0.1-0.2,0.3-0.2,0.6
					h-0.4v-4.5h0.4c0.2,0.9,0.4,1.6,0.7,2.1c0.1,0.2,0.3,0.4,0.5,0.6s0.5,0.4,0.8,0.5c0.3,0.1,0.6,0.3,0.9,0.3
					c0.3,0.1,0.7,0.1,1,0.1c0.4,0,0.8-0.1,1.1-0.2c0.3-0.1,0.6-0.3,0.8-0.5c0.2-0.2,0.4-0.4,0.5-0.7c0.1-0.3,0.2-0.5,0.2-0.8
					c0-0.3-0.1-0.7-0.3-1c-0.2-0.3-0.5-0.7-0.9-1c-0.4-0.3-0.9-0.5-1.5-0.9c-1.1-0.6-2.1-1.2-2.9-1.8c-0.5-0.4-0.8-0.8-1.1-1.2
					c-0.2-0.4-0.4-0.9-0.4-1.5c0-0.5,0.1-0.9,0.3-1.3c0.2-0.4,0.5-0.8,0.8-1.1c0.3-0.3,0.7-0.6,1.2-0.8c0.5-0.2,1-0.3,1.5-0.3
					c0.7,0,1.4,0.2,2.2,0.5c0.2,0.1,0.3,0.1,0.5,0.2c0.1,0,0.2,0.1,0.3,0.1c0.2,0,0.3,0,0.4-0.1c0.1-0.1,0.2-0.3,0.2-0.6H120.1z"/>
				<path class="st0" d="M136.4,259.1v5.2h2.4c0.3,0,0.5,0,0.7-0.1c0.2-0.1,0.4-0.1,0.5-0.3c0.1-0.1,0.2-0.3,0.3-0.6
					c0.1-0.2,0.1-0.5,0.2-0.9h0.4v4.4h-0.4c0-0.3,0-0.6-0.1-0.8c-0.1-0.2-0.2-0.4-0.3-0.6c-0.1-0.1-0.3-0.3-0.5-0.3
					c-0.2-0.1-0.5-0.1-0.8-0.1h-2.4v4.1c0,0.3,0,0.6,0,0.8c0,0.2,0,0.4,0.1,0.5c0,0.1,0.1,0.2,0.2,0.3c0.1,0.1,0.2,0.1,0.3,0.2
					c0.3,0.2,0.6,0.2,0.9,0.2h0.5v0.4h-5.6v-0.4h0.5c0.2,0,0.4,0,0.6-0.1c0.2,0,0.3-0.1,0.4-0.2c0.1-0.1,0.2-0.3,0.3-0.6
					c0.1-0.3,0.1-0.6,0.1-1.1v-8.5c0-0.3,0-0.5,0-0.7c0-0.2,0-0.4-0.1-0.5c0-0.1-0.1-0.2-0.2-0.3c-0.1-0.1-0.2-0.1-0.3-0.2
					c-0.1-0.1-0.3-0.1-0.4-0.2c-0.1,0-0.3-0.1-0.5-0.1h-0.5v-0.4h9.8v2.9h-0.2c-0.1-0.5-0.3-0.8-0.4-1.1c-0.2-0.3-0.4-0.5-0.6-0.7
					c-0.2-0.2-0.5-0.3-0.8-0.3c-0.3,0-0.7-0.1-1.1-0.1H136.4z"/>
				<path class="st0" d="M153.3,258.1c0.8,0,1.6,0.2,2.4,0.5c0.8,0.3,1.4,0.8,2,1.4c0.6,0.6,1,1.3,1.4,2.1c0.3,0.8,0.5,1.7,0.5,2.7
					c0,1-0.2,1.9-0.5,2.8c-0.3,0.8-0.8,1.6-1.4,2.2c-0.6,0.6-1.3,1.1-2.1,1.5c-0.8,0.4-1.6,0.5-2.5,0.5c-0.9,0-1.7-0.2-2.5-0.5
					c-0.8-0.3-1.5-0.8-2-1.4c-0.6-0.6-1-1.3-1.4-2.2c-0.3-0.8-0.5-1.8-0.5-2.8c0-0.9,0.2-1.8,0.5-2.7c0.3-0.8,0.8-1.6,1.4-2.2
					s1.3-1.1,2.1-1.5C151.5,258.3,152.4,258.1,153.3,258.1z M153.1,258.8c-0.7,0-1.3,0.1-1.8,0.4c-0.5,0.3-0.9,0.7-1.3,1.2
					c-0.4,0.5-0.6,1.2-0.8,1.9c-0.2,0.7-0.3,1.6-0.3,2.5c0,0.9,0.1,1.8,0.3,2.5c0.2,0.8,0.4,1.4,0.8,2c0.4,0.6,0.8,1,1.3,1.3
					c0.5,0.3,1.1,0.5,1.8,0.5c0.6,0,1.2-0.1,1.7-0.3c0.5-0.2,1-0.6,1.4-1.1c0.4-0.5,0.7-1.1,0.9-1.9c0.2-0.8,0.3-1.7,0.3-2.7
					c0-1-0.1-1.9-0.3-2.7c-0.2-0.8-0.4-1.5-0.8-2c-0.4-0.5-0.8-1-1.3-1.2C154.4,259,153.8,258.8,153.1,258.8z"/>
				<path class="st0" d="M176.5,271.6H173l-4.5-6.1c-0.2,0-0.3,0-0.4,0c-0.1,0-0.2,0-0.4,0c-0.1,0-0.2,0-0.3,0c-0.1,0-0.2,0-0.3,0
					v3.8c0,0.5,0,0.8,0.1,1.1c0.1,0.3,0.2,0.5,0.3,0.6c0.1,0.1,0.3,0.2,0.4,0.2c0.2,0,0.4,0,0.6,0h0.5v0.4h-5.6v-0.4h0.5
					c0.5,0,0.9-0.2,1.2-0.5c0.1-0.2,0.2-0.7,0.2-1.4v-8.5c0-0.8-0.1-1.3-0.3-1.5c-0.3-0.3-0.6-0.4-1.1-0.4h-0.5v-0.4h4.8
					c0.7,0,1.3,0,1.8,0.1c0.5,0.1,0.9,0.1,1.3,0.2c0.3,0.1,0.6,0.3,0.9,0.4c0.3,0.2,0.5,0.4,0.8,0.7c0.2,0.3,0.4,0.6,0.5,0.9
					c0.1,0.3,0.2,0.7,0.2,1.1c0,0.8-0.3,1.5-0.8,2.1c-0.5,0.6-1.3,1-2.4,1.3l2.7,3.8c0.3,0.4,0.6,0.8,0.8,1.1
					c0.2,0.3,0.5,0.5,0.7,0.7c0.2,0.2,0.5,0.3,0.8,0.4c0.3,0.1,0.6,0.1,1,0.2V271.6z M167.1,264.8c0.1,0,0.2,0,0.3,0
					c0.1,0,0.2,0,0.2,0c0.6,0,1.2-0.1,1.6-0.2c0.5-0.1,0.9-0.3,1.2-0.6c0.3-0.3,0.6-0.6,0.7-0.9c0.2-0.4,0.2-0.7,0.2-1.2
					c0-0.4-0.1-0.8-0.2-1.1c-0.1-0.3-0.3-0.6-0.6-0.9c-0.3-0.2-0.5-0.4-0.9-0.6c-0.3-0.1-0.7-0.2-1.1-0.2c-0.4,0-0.9,0.1-1.5,0.2
					V264.8z"/>
				<path class="st0" d="M197.7,258.4v3.1h-0.2c-0.1-0.8-0.3-1.4-0.7-1.8c-0.4-0.3-0.9-0.5-1.7-0.5h-1.9v10.1c0,0.4,0,0.8,0.1,1
					c0.1,0.3,0.2,0.4,0.3,0.6c0.1,0.1,0.3,0.2,0.4,0.2c0.2,0,0.4,0.1,0.6,0.1h0.4v0.4h-5.6v-0.4h0.5c0.2,0,0.4,0,0.6-0.1
					c0.2,0,0.3-0.1,0.4-0.3c0.1-0.1,0.2-0.3,0.3-0.6c0.1-0.2,0.1-0.6,0.1-1v-10.1h-1.6c-0.4,0-0.7,0-1,0.1c-0.3,0.1-0.6,0.2-0.8,0.3
					c-0.2,0.2-0.4,0.4-0.5,0.7c-0.1,0.3-0.2,0.7-0.2,1.1h-0.4v-3.1H197.7z"/>
				<path class="st0" d="M205.1,264.5h6.1v-3.8c0-0.3,0-0.6,0-0.8c0-0.2,0-0.4-0.1-0.5c0-0.1-0.1-0.2-0.2-0.3
					c-0.1-0.1-0.2-0.1-0.3-0.2c-0.3-0.2-0.6-0.2-0.9-0.2h-0.5v-0.4h5.6v0.4h-0.5c-0.1,0-0.3,0-0.4,0c-0.1,0-0.3,0.1-0.4,0.1
					c-0.1,0.1-0.2,0.1-0.3,0.2s-0.2,0.2-0.2,0.3c-0.1,0.2-0.1,0.6-0.1,1.3v8.5c0,0.3,0,0.6,0,0.8c0,0.2,0,0.4,0.1,0.5
					c0,0.1,0.1,0.2,0.2,0.3c0.1,0.1,0.2,0.1,0.3,0.2c0.3,0.2,0.6,0.2,0.9,0.2h0.5v0.4h-5.6v-0.4h0.5c0.2,0,0.4,0,0.6-0.1
					c0.2,0,0.3-0.1,0.4-0.2c0.1-0.1,0.2-0.3,0.3-0.6c0.1-0.3,0.1-0.6,0.1-1.1v-4h-6.1v4c0,0.3,0,0.6,0,0.8c0,0.2,0,0.4,0.1,0.5
					c0,0.1,0.1,0.2,0.2,0.3c0.1,0.1,0.2,0.1,0.3,0.2c0.3,0.2,0.6,0.2,0.9,0.2h0.5v0.4h-5.6v-0.4h0.5c0.5,0,0.9-0.2,1.2-0.5
					c0.2-0.2,0.2-0.7,0.2-1.5v-8.5c0-0.3,0-0.6,0-0.8c0-0.2,0-0.4-0.1-0.5c0-0.1-0.1-0.2-0.2-0.3c-0.1-0.1-0.2-0.1-0.3-0.2
					c-0.3-0.2-0.6-0.2-0.9-0.2h-0.5v-0.4h5.6v0.4h-0.5c-0.1,0-0.2,0-0.4,0c-0.1,0-0.3,0.1-0.4,0.1c-0.1,0.1-0.2,0.1-0.3,0.2
					s-0.2,0.2-0.2,0.3c-0.1,0.2-0.1,0.7-0.1,1.3V264.5z"/>
				<path class="st0" d="M225.2,258.1c0.8,0,1.6,0.2,2.4,0.5c0.8,0.3,1.4,0.8,2,1.4c0.6,0.6,1,1.3,1.4,2.1s0.5,1.7,0.5,2.7
					c0,1-0.2,1.9-0.5,2.8c-0.3,0.8-0.8,1.6-1.4,2.2c-0.6,0.6-1.3,1.1-2.1,1.5c-0.8,0.4-1.6,0.5-2.5,0.5c-0.9,0-1.7-0.2-2.5-0.5
					c-0.8-0.3-1.5-0.8-2-1.4c-0.6-0.6-1-1.3-1.4-2.2c-0.3-0.8-0.5-1.8-0.5-2.8c0-0.9,0.2-1.8,0.5-2.7c0.3-0.8,0.8-1.6,1.4-2.2
					s1.3-1.1,2.1-1.5C223.4,258.3,224.3,258.1,225.2,258.1z M225.1,258.8c-0.7,0-1.3,0.1-1.8,0.4c-0.5,0.3-0.9,0.7-1.3,1.2
					c-0.4,0.5-0.6,1.2-0.8,1.9c-0.2,0.7-0.3,1.6-0.3,2.5c0,0.9,0.1,1.8,0.3,2.5c0.2,0.8,0.4,1.4,0.8,2c0.4,0.6,0.8,1,1.3,1.3
					c0.5,0.3,1.1,0.5,1.8,0.5c0.6,0,1.2-0.1,1.7-0.3c0.5-0.2,1-0.6,1.4-1.1c0.4-0.5,0.7-1.1,0.9-1.9c0.2-0.8,0.3-1.7,0.3-2.7
					c0-1-0.1-1.9-0.3-2.7c-0.2-0.8-0.4-1.5-0.8-2c-0.4-0.5-0.8-1-1.3-1.2C226.4,259,225.8,258.8,225.1,258.8z"/>
				<path class="st0" d="M244.5,258.8v-0.4h4.6v0.4h-0.5c-0.5,0-0.9,0.2-1.2,0.7c-0.1,0.2-0.2,0.7-0.2,1.4v5.3
					c0,1.3-0.1,2.3-0.4,3.1c-0.1,0.4-0.3,0.7-0.6,1c-0.3,0.3-0.6,0.6-1,0.8c-0.4,0.2-0.8,0.4-1.4,0.6c-0.5,0.1-1.1,0.2-1.8,0.2
					c-0.7,0-1.4-0.1-1.9-0.2c-0.5-0.1-1-0.3-1.4-0.6c-0.4-0.2-0.7-0.5-1-0.9c-0.2-0.3-0.5-0.7-0.6-1.1c-0.2-0.6-0.3-1.7-0.3-3.2
					v-5.1c0-0.4,0-0.7-0.1-1c-0.1-0.3-0.1-0.5-0.3-0.6c-0.1-0.1-0.3-0.2-0.4-0.3c-0.2-0.1-0.4-0.1-0.6-0.1h-0.5v-0.4h5.7v0.4h-0.5
					c-0.2,0-0.4,0-0.6,0.1c-0.2,0-0.3,0.1-0.4,0.3s-0.2,0.3-0.3,0.6c-0.1,0.3-0.1,0.6-0.1,1v5.7c0,0.6,0,1.1,0.1,1.7
					c0.1,0.5,0.2,1,0.5,1.5c0.2,0.4,0.6,0.8,1,1c0.4,0.3,1,0.4,1.8,0.4c0.4,0,0.8-0.1,1.2-0.2c0.4-0.1,0.8-0.2,1.1-0.4
					c0.3-0.2,0.6-0.4,0.8-0.6c0.2-0.2,0.4-0.5,0.5-0.8c0.2-0.6,0.4-1.6,0.4-3v-5.3c0-0.8-0.1-1.3-0.3-1.5c-0.2-0.3-0.6-0.4-1.1-0.4
					H244.5z"/>
				<path class="st0" d="M264.2,258.1l0.3,4.1h-0.3c-0.4-1.2-1-2.1-1.7-2.6c-0.7-0.5-1.6-0.8-2.7-0.8c-0.8,0-1.5,0.2-2.1,0.5
					c-0.6,0.3-1.1,0.7-1.5,1.3c-0.4,0.5-0.7,1.2-1,1.9c-0.2,0.7-0.3,1.5-0.3,2.4c0,1.2,0.2,2.4,0.7,3.4c0.2,0.5,0.5,1,0.8,1.3
					c0.3,0.4,0.7,0.7,1,0.9c0.4,0.2,0.8,0.4,1.2,0.5c0.4,0.1,0.8,0.2,1.2,0.2c1,0,1.9-0.2,2.7-0.7v-3.8c0-0.3,0-0.6,0-0.8
					c0-0.2-0.1-0.4-0.1-0.5c-0.1-0.1-0.1-0.2-0.2-0.3c-0.1-0.1-0.2-0.1-0.3-0.2c-0.2-0.1-0.6-0.2-1.1-0.2v-0.4h5.1v0.4h-0.2
					c-0.2,0-0.4,0-0.6,0.1c-0.2,0-0.3,0.1-0.4,0.3c-0.1,0.1-0.2,0.3-0.2,0.6c0,0.2-0.1,0.6-0.1,1v4c-0.4,0.2-0.7,0.4-1.1,0.5
					c-0.4,0.1-0.7,0.3-1.1,0.4c-0.8,0.2-1.6,0.3-2.4,0.3c-1.1,0-2.1-0.2-3-0.5c-0.9-0.3-1.7-0.8-2.3-1.4c-0.6-0.6-1.1-1.3-1.5-2.1
					c-0.3-0.8-0.5-1.7-0.5-2.6c0-1.1,0.3-2.3,0.8-3.3c0.6-1.3,1.5-2.2,2.7-2.9c1-0.6,2.1-0.8,3.4-0.8c0.3,0,0.5,0,0.7,0
					c0.2,0,0.4,0,0.6,0.1c0.2,0,0.5,0.1,0.7,0.2c0.3,0.1,0.6,0.2,0.9,0.3c0.4,0.1,0.6,0.2,0.7,0.2c0.1,0,0.2-0.1,0.3-0.2
					c0.1-0.1,0.1-0.3,0.2-0.7H264.2z"/>
				<path class="st0" d="M273.1,264.5h6.1v-3.8c0-0.3,0-0.6,0-0.8c0-0.2,0-0.4-0.1-0.5c0-0.1-0.1-0.2-0.2-0.3
					c-0.1-0.1-0.2-0.1-0.3-0.2c-0.3-0.2-0.6-0.2-0.9-0.2h-0.5v-0.4h5.6v0.4h-0.5c-0.1,0-0.3,0-0.4,0c-0.1,0-0.3,0.1-0.4,0.1
					c-0.1,0.1-0.2,0.1-0.3,0.2c-0.1,0.1-0.2,0.2-0.2,0.3c-0.1,0.2-0.1,0.6-0.1,1.3v8.5c0,0.3,0,0.6,0,0.8c0,0.2,0,0.4,0.1,0.5
					c0,0.1,0.1,0.2,0.2,0.3c0.1,0.1,0.2,0.1,0.3,0.2c0.3,0.2,0.6,0.2,0.9,0.2h0.5v0.4h-5.6v-0.4h0.5c0.2,0,0.4,0,0.6-0.1
					c0.2,0,0.3-0.1,0.4-0.2c0.1-0.1,0.2-0.3,0.3-0.6c0.1-0.3,0.1-0.6,0.1-1.1v-4h-6.1v4c0,0.3,0,0.6,0,0.8c0,0.2,0,0.4,0.1,0.5
					c0,0.1,0.1,0.2,0.2,0.3c0.1,0.1,0.2,0.1,0.3,0.2c0.3,0.2,0.6,0.2,0.9,0.2h0.5v0.4h-5.6v-0.4h0.5c0.5,0,0.9-0.2,1.2-0.5
					c0.2-0.2,0.2-0.7,0.2-1.5v-8.5c0-0.3,0-0.6,0-0.8s0-0.4-0.1-0.5c0-0.1-0.1-0.2-0.2-0.3c-0.1-0.1-0.2-0.1-0.3-0.2
					c-0.3-0.2-0.6-0.2-0.9-0.2h-0.5v-0.4h5.6v0.4h-0.5c-0.1,0-0.2,0-0.4,0c-0.1,0-0.3,0.1-0.4,0.1c-0.1,0.1-0.2,0.1-0.3,0.2
					c-0.1,0.1-0.2,0.2-0.2,0.3c-0.1,0.2-0.1,0.7-0.1,1.3V264.5z"/>
				<path class="st0" d="M297.5,258.4v3.1h-0.2c-0.1-0.8-0.3-1.4-0.7-1.8c-0.4-0.3-0.9-0.5-1.7-0.5H293v10.1c0,0.4,0,0.8,0.1,1
					c0.1,0.3,0.2,0.4,0.3,0.6c0.1,0.1,0.3,0.2,0.4,0.2c0.2,0,0.4,0.1,0.6,0.1h0.4v0.4h-5.6v-0.4h0.5c0.2,0,0.4,0,0.6-0.1
					c0.2,0,0.3-0.1,0.4-0.3c0.1-0.1,0.2-0.3,0.3-0.6c0.1-0.2,0.1-0.6,0.1-1v-10.1h-1.6c-0.4,0-0.7,0-1,0.1c-0.3,0.1-0.6,0.2-0.8,0.3
					c-0.2,0.2-0.4,0.4-0.5,0.7s-0.2,0.7-0.2,1.1h-0.4v-3.1H297.5z"/>
			</g>
		</g>
	</g>
</g>
</svg>
